<?xml version="1.0" standalone="no"?>
<!DOCTYPE svg PUBLIC "-//W3C//DTD SVG 20010904//EN"
 "http://www.w3.org/TR/2001/REC-SVG-20010904/DTD/svg10.dtd">
<svg version="1.0" xmlns="http://www.w3.org/2000/svg"
 width="500.000000pt" height="500.000000pt" viewBox="0 0 500.000000 500.000000"
 preserveAspectRatio="xMidYMid meet">

<g transform="translate(0.000000,500.000000) scale(0.100000,-0.100000)"
fill="#000000" stroke="none">
<path d="M2385 3367 c-93 -31 -182 -102 -229 -181 -88 -151 -68 -355 48 -484
176 -194 495 -170 636 50 137 211 57 491 -170 597 -45 20 -73 26 -150 28 -59
2 -110 -2 -135 -10z m165 -310 c58 -34 106 -69 108 -78 3 -18 -222 -154 -238
-144 -6 4 -10 66 -10 146 0 126 2 139 18 138 9 0 64 -28 122 -62z"/>
<path d="M4258 3117 c-68 -41 -96 -107 -76 -184 13 -53 72 -109 123 -119 75
-14 163 35 185 103 49 147 -103 278 -232 200z m143 -22 c93 -48 90 -194 -4
-238 -41 -20 -65 -21 -104 -6 -98 37 -118 157 -38 228 41 36 96 41 146 16z"/>
<path d="M4328 3023 c-2 -21 -9 -29 -28 -31 -35 -5 -50 -22 -19 -22 14 0 30
-5 37 -12 7 -7 12 -23 12 -37 0 -31 17 -16 22 19 2 19 10 26 31 28 33 4 26 22
-9 22 -20 0 -24 5 -24 30 0 38 -18 40 -22 3z"/>
<path d="M544 3096 c-29 -29 -34 -41 -34 -80 0 -56 31 -95 125 -156 l66 -43
83 57 c93 63 121 103 111 158 -16 81 -105 124 -170 82 -22 -14 -26 -14 -47 0
-12 9 -40 16 -61 16 -31 0 -46 -7 -73 -34z m127 -8 c35 -20 40 -20 56 -6 30
26 60 30 92 13 36 -18 51 -43 51 -82 0 -40 -20 -64 -99 -118 l-70 -48 -34 22
c-91 56 -136 104 -137 147 0 37 53 90 94 93 4 1 26 -9 47 -21z"/>
<path d="M1642 3059 c-45 -27 -85 -49 -87 -49 -3 0 -5 18 -5 39 0 44 -13 59
-35 41 -19 -15 -22 -209 -4 -227 21 -21 39 -3 39 38 0 21 3 39 8 39 4 0 42
-20 84 -45 43 -25 82 -45 88 -45 12 0 14 246 3 253 -5 3 -45 -17 -91 -44z"/>
<path d="M3280 2981 c0 -72 4 -122 10 -126 6 -4 47 14 92 39 44 25 85 46 89
46 5 0 9 -18 9 -39 0 -42 8 -54 28 -42 9 5 12 39 10 122 -3 99 -5 114 -20 117
-15 3 -18 -4 -18 -42 0 -25 -3 -46 -7 -46 -5 0 -42 20 -83 45 -112 67 -110 68
-110 -74z"/>
<path d="M575 2358 c-2 -7 -11 -53 -20 -103 -17 -95 -78 -345 -95 -389 -9 -24
-7 -28 17 -37 14 -5 30 -6 34 -2 10 11 48 150 73 272 l22 104 22 -104 c12 -57
32 -140 45 -184 20 -71 25 -80 48 -83 14 -2 30 3 36 10 13 16 83 293 83 327 0
45 14 11 36 -87 12 -54 32 -135 44 -180 22 -80 23 -82 49 -76 14 4 28 8 30 10
2 1 -13 63 -33 136 -19 73 -45 185 -56 248 -28 151 -28 150 -54 150 -32 0 -42
-16 -50 -75 -10 -66 -63 -292 -75 -312 -9 -16 -62 186 -77 292 -10 77 -20 95
-49 95 -14 0 -28 -6 -30 -12z"/>
<path d="M1805 2359 c-10 -14 -10 -489 -1 -516 5 -17 15 -23 36 -23 l29 0 -6
78 -6 78 104 43 c57 24 119 54 137 68 99 74 96 205 -4 254 -53 25 -150 36
-193 21 -19 -7 -31 -7 -31 -1 0 13 -57 12 -65 -2z m274 -76 c52 -39 35 -118
-33 -158 -23 -13 -74 -38 -114 -54 l-72 -30 0 113 c0 117 5 131 50 150 31 12
142 -2 169 -21z"/>
<path d="M2294 2338 c-4 -18 -7 -127 -7 -243 0 -250 4 -275 41 -275 l27 0 0
275 0 275 -27 0 c-22 0 -28 -6 -34 -32z"/>
<path d="M3284 2359 c-13 -22 -17 -413 -5 -467 21 -84 28 -87 189 -74 76 7
146 12 155 12 12 0 17 9 17 31 l0 31 -102 -8 c-57 -5 -123 -8 -147 -9 -44 0
-45 1 -54 40 -9 43 -2 395 9 433 6 19 3 22 -24 22 -17 0 -34 -5 -38 -11z"/>
<path d="M3700 2290 l0 -30 68 0 c37 0 77 -3 90 -6 19 -6 22 -3 22 24 0 37
-12 42 -106 42 l-74 0 0 -30z"/>
<path d="M4440 2281 c0 -16 -3 -42 -6 -59 -6 -30 -9 -31 -63 -34 -53 -3 -56
-5 -59 -30 -3 -28 -3 -28 56 -28 l59 0 7 -127 c9 -174 11 -183 48 -183 l29 0
-8 63 c-4 34 -8 103 -8 152 l0 90 63 3 c61 3 62 3 62 32 l0 30 -63 0 -63 0 4
60 4 60 -31 0 c-27 0 -31 -3 -31 -29z"/>
<path d="M2534 2181 c-52 -24 -61 -37 -39 -61 17 -18 18 -18 56 2 83 43 169 1
169 -83 l0 -39 -40 26 c-34 22 -48 26 -90 22 -110 -11 -155 -121 -79 -194 28
-27 35 -29 107 -28 53 1 93 7 127 22 44 18 50 23 48 48 -1 15 -6 30 -10 33 -4
3 -8 42 -8 86 0 96 -19 136 -80 165 -51 25 -108 25 -161 1z m150 -231 l48 -40
-29 -11 c-37 -16 -139 -17 -154 -2 -18 18 -14 65 7 80 34 24 76 16 128 -27z"/>
<path d="M1075 2179 c-13 -19 -10 -221 3 -260 17 -50 62 -90 109 -96 34 -4 45
-1 76 26 l35 32 7 -68 c16 -182 16 -183 33 -183 41 1 43 11 31 134 -9 95 -7
342 4 411 1 6 -12 11 -29 13 l-31 3 -7 -102 c-7 -108 -19 -140 -70 -188 -32
-30 -70 -22 -92 20 -12 24 -15 57 -13 147 l3 117 -26 3 c-14 2 -29 -2 -33 -9z"/>
<path d="M2845 2115 c-9 -88 6 -202 30 -238 17 -27 71 -57 102 -57 25 0 82 36
91 58 3 9 12 -41 18 -111 6 -70 14 -130 17 -134 3 -3 18 -2 32 1 25 6 25 8 18
59 -4 28 -8 152 -7 275 l1 222 -28 0 -27 0 -6 -97 c-7 -106 -21 -145 -67 -189
-25 -24 -33 -26 -57 -18 -15 5 -33 23 -41 39 -15 30 -20 145 -11 220 5 39 4
40 -27 43 l-31 3 -7 -76z"/>
<path d="M4020 2179 c-67 -27 -90 -89 -49 -130 11 -11 57 -38 102 -58 45 -21
91 -48 102 -61 l20 -22 -35 -29 c-19 -16 -56 -39 -82 -51 -47 -21 -57 -38 -39
-66 11 -18 115 34 171 84 76 69 47 121 -105 194 -46 21 -87 44 -91 51 -14 23
28 39 103 39 l73 0 0 30 0 30 -72 -1 c-40 0 -84 -5 -98 -10z"/>
<path d="M3761 2058 c1 -68 4 -148 7 -178 7 -51 9 -55 36 -58 l29 -4 -6 69
c-4 37 -7 119 -7 181 l0 112 -30 0 -30 0 1 -122z"/>
</g>
</svg>
